<?xml version="1.0" encoding="utf-8"?>
<!-- Generator: Adobe Illustrator 27.7.0, SVG Export Plug-In . SVG Version: 6.00 Build 0)  -->
<svg version="1.1" id="Ebene_1" xmlns="http://www.w3.org/2000/svg" x="0px" y="0px"
     viewBox="0 0 283.5 169" style="enable-background:new 0 0 283.5 169;" xml:space="preserve">
<style type="text/css">
	.st0{fill:#629080;}
</style>
    <g>
	<path class="st0" d="M30.6,133.7c-3.1,3.8-13.2,16.5-17.9,16.5c-2,0-2.6-1.8-2.4-3.6c0.7-9.4,8.7-22.2,17.7-22.2
		c1.5,0,3.5,0.5,4.8,1.2L30.6,133.7z M40.4,120.6h-6.3c-1.7-0.5-3.4-0.8-5.2-0.8c-14.2,0-24.7,17.2-25.5,28
		c-0.3,3.9,1.6,8.4,6.1,8.4c7.3,0,15.3-9.2,19.1-15.1H29l-3.8,12.5c-1.9,6.5-4.7,10.1-11.7,10.1c-4.3,0-8.4-1.3-12-3.2L0,166.3
		c3.6,1.8,7.6,2.8,11.7,2.8c10.3,0,17.1-5,19.5-13.8L40.4,120.6z"/>
        <path class="st0" d="M50.3,134.9h0.4c4-5.9,11.1-15.1,18.7-15.1h1.8l-1.9,7c-0.8-0.3-1.5-0.5-2.3-0.5c-3.8,0-7.2,3.6-9.6,6.2
		l-8.9,10.7l-3.3,12.3h-6.4l9.4-34.9h6.3L50.3,134.9z"/>
        <path class="st0" d="M75.5,137.9c1.1-5.1,6.5-13.3,12.1-13.3c2,0,3.8,1.6,3.6,3.7C90.8,134.3,81.3,137.8,75.5,137.9 M95.9,145.9
		c-4.1,2.7-10.4,5.3-15.2,5.3c-4.9,0-6.8-4.1-6.2-8.6c8.9-0.5,22.4-5.3,23.2-15.8c0.3-4.8-3-7-7.3-7c-15.1,0-22.1,15.9-22.7,24.6
		c-0.5,7.3,3.3,11.9,10.6,11.9c5.5,0,11.2-1.8,16-4.3L95.9,145.9z"/>
        <path class="st0" d="M107.4,137.9c1.1-5.1,6.5-13.3,12.1-13.3c2,0,3.8,1.6,3.6,3.7C122.7,134.3,113.2,137.8,107.4,137.9
		 M127.8,145.9c-4.1,2.7-10.4,5.3-15.2,5.3c-4.9,0-6.8-4.1-6.2-8.6c8.9-0.5,22.4-5.3,23.2-15.8c0.3-4.8-3-7-7.3-7
		c-15.1,0-22.1,15.9-22.7,24.6c-0.5,7.3,3.3,11.9,10.6,11.9c5.5,0,11.2-1.8,16-4.3L127.8,145.9z"/>
        <path class="st0" d="M142.5,134.9h0.4c4-5.9,11.1-15.1,18.7-15.1c4.1,0,5.6,2.8,5.3,6.6c-0.1,1.6-0.4,3.2-0.9,4.8l-6.5,24.2h-6.3
		l6.5-24.4c0.2-0.8,0.2-1.6,0.3-2.4c0.1-1.3-0.1-2.7-1.6-2.7c-4.9,0-14.5,13.3-17.8,17.2l-3.3,12.3H131l9.4-34.9h6.3L142.5,134.9z"
        />
        <path class="st0" d="M199,140.5c0.4-5.4-4-9.1-8.7-13.1c-5.2-4.3-10.5-8.8-10-16.1c0.6-8.3,7.7-16.7,22.3-16.7
		c4.9,0,9.8,0.9,14.5,2.5c-0.1,0.3-1.7,6.2-1.8,6.5c-3.9-2.1-9.2-3.4-14.1-3.4c-5.8,0-12.7,2.6-13.2,9.8c-0.3,4.9,3.8,8.3,8.1,11.9
		c5.2,4.3,11.1,9.1,10.5,17.5c-0.4,6.4-5.9,17.3-23.5,17.3c-5.5,0-10.8-0.9-15.6-2.7c0.1-0.3,1.6-6.4,1.7-6.7
		c5.6,2.6,10.6,3.8,15.3,3.8C192.5,151.2,198.6,146.7,199,140.5"/>
        <polygon class="st0" points="213.6,155.5 210.2,120.6 216.7,120.6 218.8,147.9 237.8,120.6 243.9,120.6 210.8,168.2 204.7,168.2 	
		"/>
        <path class="st0" d="M236.9,148.3c3.4,1.8,6.9,3.3,10.8,3.3c2.8,0,5.8-1.3,6-4.4c0.4-5.7-10.8-9.7-10.3-17.8
		c0.3-3.7,3.9-9.5,12.6-9.5c3.4,0,6.7,0.7,9.7,2l-1.4,5.3c-2.9-1.5-5.6-2.6-8.9-2.6c-2.6,0-5.4,1.1-5.6,4.1
		c-0.3,4.9,10.9,9.4,10.3,17.9c-0.5,7-7.2,9.7-13.2,9.7c-4.3,0-7.6-1-11.3-2.6L236.9,148.3z"/>
        <path class="st0" d="M222.3,108.1c2.7-0.1,4.1-7.8,8.8-11.4c2.7-2,6.3-1.2,14-7.2c3.5-2.7,17-13.4,26-28
		c14.4-23.3,15.6-53.8,6.6-46.9c-8.4,6.4,8.7,15.6-24.2,56.9c-8.7,10.9-17.1,16.4-21.3,17.7c-2.9,0.9-6.5-0.8-8.9,0.4
		c-1.9,1-1.8,3.1-2.7,6c-0.9,2.7-1.2,6.4-1.1,8.8C219.6,106.9,220.7,107.6,222.3,108.1"/>
        <path class="st0" d="M260.9,24.9c-2.1-2.3-11.7-0.6-30.2,17.9C214.4,59.2,212,72.2,211,79.5c-0.9,6.8,0.9,8.8,3,9
		c2.2,0.2,4.2-0.8,4.9-2c2.8-4.9-1.2-10.6,6.2-23.8c6.2-11.1,12.6-16.8,20.6-24C255.5,29.9,264.3,29.3,260.9,24.9"/>
        <path class="st0" d="M137.7,119.4c3.7-1.9-0.9-11.4,5-16.9c2.7-2.5,10.9-4.8,19.5-12.4c19-16.9,25.2-30,30.7-46.9
		c1.4-4.3,4.3-12.2,5.4-20c1.7-12.1-0.1-24.1-3.4-23.1C189,1.8,194.3,16.4,187,30c-4.8,9-7.6,29.1-24.5,45.9
		c-8.7,8.6-19.6,14.7-22.9,17.8c-1.7,1.6-7.6,9.3-7.1,12.6c0.7,4.9-0.1,6.8,0,9.4C132.7,118.5,135.8,119.9,137.7,119.4"/>
        <path class="st0" d="M181.8,19.8c-3.4-4.3-27.6,10.5-38.8,23.2c-16.6,18.9-17.2,27.6-17.4,36.1c-0.2,7.5,1.5,12,3.2,13.7
		c1.9,1.8,5.9,0.2,7.3-2.6c0.9-1.9-0.9-7.8-0.9-13.3c0-6.4,2.9-14.1,4.8-17.2c7.2-11.9,12.7-17.3,23.8-24.5
		C176.7,26.6,184.3,24.9,181.8,19.8"/>
        <path class="st0" d="M54.7,111.1c3.1-0.1,3.3-6.8,6.4-9.1c3.1-2.3,9.4-1.7,18.3-8.6c4-3.1,13.8-10.6,23.5-25.9
		c14.7-23.2,18.5-47.9,18.3-59.2c-0.1-4.5-0.3-6.6-1.7-6.1c-1.2,0.4-1.7,3.1-2.6,6.6c-2.7,10.8-6.7,33.1-26,59.8
		c-9.5,13.1-20.7,22-25.5,22.8c-3.5,0.6-2.8-3.6-5.8-2.9c-2.5,0.6-2.2,1.2-3.3,2.6c-1.7,2.3-0.4,3.1-1.9,5.8
		c-1.6,2.9-3.5,7.2-3.3,10.1C51.2,110,52.8,110.6,54.7,111.1"/>
        <path class="st0" d="M107.9,13.8c-3.7-1.1-32.3,18.6-43.7,31.5c-11.5,12.9-15.4,28.6-16.5,37c-1,7.9,1.4,8.9,3.9,9.2
		c2.5,0.3,2.6,0.5,3.7-0.6c1.1-1.1-0.2-18.7,12.2-33.9c12.4-15.2,19.4-19.1,28.7-27.6C105.5,21,111.6,14.9,107.9,13.8"/>
</g>
</svg>
